<?xml version="1.0" standalone="no"?>
<!DOCTYPE svg PUBLIC "-//W3C//DTD SVG 20010904//EN"
 "http://www.w3.org/TR/2001/REC-SVG-20010904/DTD/svg10.dtd">
<svg version="1.0" xmlns="http://www.w3.org/2000/svg"
 width="1920.000000pt" height="1080.000000pt" viewBox="0 0 1920.000000 1080.000000"
 preserveAspectRatio="xMidYMid meet">

<g transform="translate(0.000000,1080.000000) scale(0.100000,-0.100000)"
fill="#000000" stroke="none">
<path d="M0 5400 l0 -5400 9600 0 9600 0 0 5400 0 5400 -9600 0 -9600 0 0
-5400z m12310 5250 c81 -30 109 -48 168 -107 79 -79 130 -195 153 -341 41
-274 43 -289 43 -597 0 -391 -20 -571 -109 -975 -42 -189 -58 -360 -40 -436
15 -65 56 -136 94 -163 15 -11 48 -26 73 -32 40 -11 53 -10 114 10 63 21 75
29 134 98 71 81 71 82 153 228 56 100 108 231 152 380 13 44 48 163 79 265 31
102 74 250 97 329 42 152 92 286 190 512 32 76 59 141 59 144 0 11 104 193
147 258 64 94 199 218 285 262 62 31 80 35 146 35 80 0 105 -10 187 -76 95
-76 153 -257 140 -433 -8 -121 -24 -190 -85 -365 -61 -180 -61 -179 -197 -451
-136 -270 -220 -427 -316 -585 -38 -63 -77 -128 -87 -145 -10 -16 -44 -75 -77
-130 -66 -112 -83 -153 -113 -274 -25 -100 -18 -174 25 -265 15 -31 25 -63 22
-70 -3 -7 -23 -16 -44 -20 -21 -3 -45 -11 -53 -16 -13 -9 -12 -12 4 -25 25
-19 115 -20 158 -1 238 103 463 68 543 -85 23 -42 38 -157 32 -237 -7 -98 -54
-192 -141 -287 -66 -73 -114 -108 -328 -248 -188 -122 -265 -176 -343 -240
-71 -58 -174 -117 -205 -117 -31 0 -104 30 -128 53 -13 12 -37 46 -54 76 -26
45 -32 66 -32 120 l-1 65 110 47 c192 82 241 110 302 169 62 60 83 105 83 176
-1 59 -29 105 -85 141 -93 59 -88 51 -69 106 10 30 30 59 55 80 21 19 39 37
39 42 0 4 -16 5 -36 2 -47 -8 -100 -49 -122 -95 -10 -23 -25 -38 -38 -40 -23
-3 -83 27 -177 90 -32 21 -60 38 -62 38 -3 0 -78 49 -169 110 -195 130 -236
155 -381 224 -186 90 -422 156 -559 156 -75 0 -210 -23 -261 -45 -21 -8 -42
-12 -46 -8 -4 5 -3 69 3 143 12 151 -4 416 -42 675 -6 44 -15 118 -21 165 -6
47 -14 121 -20 165 -24 202 -32 475 -19 650 31 405 107 672 232 808 45 50 64
63 123 83 94 32 234 33 315 4z m-2282 -1305 c28 -15 78 -55 110 -89 47 -49 65
-78 91 -146 71 -183 112 -238 211 -284 67 -31 126 -33 212 -6 74 23 107 25
114 6 9 -23 -24 -144 -51 -186 -48 -75 -143 -115 -218 -91 -19 7 -49 29 -66
49 -58 72 -111 126 -116 120 -3 -3 13 -36 36 -74 83 -136 93 -166 97 -302 4
-122 -4 -190 -34 -292 -19 -66 -39 -65 -99 3 -43 47 -47 49 -41 23 12 -51 58
-109 212 -270 77 -80 167 -261 194 -387 28 -133 26 -305 -4 -314 -124 -36
-282 -95 -329 -123 -103 -61 -229 -197 -278 -302 -59 -124 -90 -252 -71 -286
11 -20 9 -24 46 116 36 140 110 266 202 343 92 78 296 158 464 182 70 10 258
54 329 77 74 24 165 73 225 123 24 19 48 35 53 35 6 0 13 -46 16 -107 9 -160
64 -315 137 -380 31 -28 50 -13 22 17 -109 117 -145 389 -73 545 11 22 32 69
47 105 49 113 156 282 215 341 34 33 88 71 134 94 69 35 85 40 169 43 239 11
475 -64 733 -231 213 -138 376 -233 518 -301 88 -43 169 -81 180 -85 91 -35
133 -61 149 -95 19 -41 14 -98 -15 -145 -48 -79 -193 -154 -379 -194 -130 -28
-443 -31 -538 -5 -59 17 -208 85 -235 108 -6 6 -37 28 -67 50 -30 22 -64 47
-75 56 -58 47 -158 104 -220 124 -85 28 -216 33 -255 10 -24 -14 -24 -15 -4
-18 11 -1 47 1 79 6 45 7 71 6 114 -6 66 -18 78 -26 253 -158 193 -146 322
-221 435 -255 54 -15 192 -124 231 -181 17 -24 38 -69 47 -99 9 -30 19 -60 21
-68 8 -26 27 6 27 46 0 46 -32 111 -84 174 -22 25 -39 50 -39 56 0 15 24 23
91 30 74 7 109 -11 109 -60 0 -68 111 -214 196 -257 40 -20 64 -25 133 -26 70
-1 86 -4 97 -19 33 -45 4 -249 -51 -356 -24 -47 -140 -156 -195 -184 -44 -22
-104 -35 -245 -53 -76 -10 -104 -21 -355 -134 -242 -110 -254 -113 -395 -112
-171 2 -244 26 -420 137 -100 64 -129 90 -163 147 -19 32 -28 40 -30 27 -8
-41 87 -159 193 -238 55 -41 142 -89 163 -89 5 0 18 -10 30 -23 l22 -24 -28
-39 c-110 -150 -307 -278 -523 -340 -124 -35 -328 -38 -439 -5 -41 12 -89 25
-106 30 -43 12 -206 95 -232 119 -7 6 -17 12 -22 12 -5 0 -39 28 -75 61 -65
62 -87 67 -39 10 14 -17 22 -35 19 -41 -4 -6 -30 -22 -58 -34 -94 -42 -210
-97 -364 -172 -84 -41 -155 -74 -157 -74 -3 0 -92 -42 -198 -94 -106 -51 -236
-114 -288 -138 -52 -25 -142 -68 -200 -95 -58 -28 -132 -63 -165 -78 -33 -15
-116 -54 -184 -86 -67 -33 -124 -59 -126 -59 -2 0 -70 -32 -152 -71 -81 -39
-175 -84 -208 -99 -33 -15 -100 -47 -150 -70 -49 -23 -115 -53 -145 -67 -30
-14 -77 -36 -104 -49 -27 -13 -52 -21 -55 -18 -9 8 -7 138 2 219 10 89 52 286
76 362 44 137 96 261 190 448 107 217 131 287 131 389 0 89 -28 90 -37 2 -7
-65 -23 -118 -35 -114 -6 2 -25 49 -43 104 -50 159 -135 294 -265 424 -97 96
-105 103 -177 148 -54 33 -73 29 -28 -6 37 -29 31 -48 -22 -69 -145 -56 -353
-184 -425 -261 -121 -129 -151 -275 -107 -530 28 -165 19 -220 -39 -251 -32
-17 -79 0 -125 47 -68 70 -101 180 -112 376 -5 106 -28 136 -150 199 -135 70
-255 102 -370 100 -78 -1 -105 -7 -205 -43 -221 -80 -228 -82 -321 -78 -93 4
-136 22 -172 70 -24 32 -18 63 18 106 25 30 48 40 300 134 86 33 209 103 240
139 l20 22 -30 -7 c-16 -4 -59 -21 -95 -38 l-65 -31 -173 1 c-188 1 -229 11
-251 58 -18 40 -13 68 18 111 45 61 94 92 216 132 93 30 118 33 279 33 96 0
145 3 135 8 -30 17 -212 32 -299 25 -114 -9 -128 -11 -179 -25 -55 -15 -71 -8
-71 29 0 49 36 68 138 76 111 8 163 19 289 61 179 60 337 58 503 -7 30 -11 65
-23 78 -26 28 -7 49 -36 63 -86 6 -21 19 -53 30 -70 19 -29 20 -29 15 -7 -3
14 -17 77 -31 140 -32 146 -49 223 -75 335 -33 139 -50 287 -50 448 0 152 4
181 47 327 34 114 77 179 160 240 88 64 181 88 330 84 212 -6 397 -97 582
-286 75 -78 163 -190 206 -262 24 -41 24 -45 11 -92 -41 -146 -45 -302 -11
-435 19 -74 87 -219 140 -299 40 -61 240 -267 267 -276 9 -3 24 -25 34 -49 18
-49 31 -57 36 -22 2 18 9 22 36 21 17 -1 32 2 32 6 0 4 -15 13 -32 21 -18 7
-66 44 -105 83 -40 38 -76 72 -81 75 -31 22 -129 155 -154 210 -86 187 -113
334 -97 528 19 231 105 398 314 613 155 159 217 248 244 345 6 23 15 108 21
190 6 83 16 166 22 185 12 40 68 163 77 170 4 3 18 21 31 40 50 74 151 161
243 211 59 31 223 91 287 104 46 9 110 37 110 47 0 4 -18 8 -39 8 -22 0 -42 4
-45 9 -9 14 23 130 50 184 35 68 107 138 185 178 68 34 88 39 169 36 61 -3 86
-9 128 -32z m1402 -5106 c0 -12 13 -67 29 -123 38 -132 136 -583 147 -676 1
-14 8 -95 14 -180 12 -149 9 -209 -16 -390 -14 -96 -88 -330 -133 -419 -53
-104 -241 -382 -341 -506 -19 -24 -51 -66 -70 -95 -19 -28 -51 -73 -71 -98
-20 -26 -38 -52 -40 -57 -2 -6 -29 -48 -60 -95 -100 -151 -219 -399 -219 -457
0 -10 -7 -31 -15 -47 -8 -15 -15 -38 -15 -50 0 -38 -13 -43 -110 -48 -89 -4
-101 -7 -190 -51 -106 -52 -242 -137 -248 -155 -5 -17 8 -14 58 13 199 110
299 139 440 131 99 -6 258 -51 290 -83 13 -13 12 -17 -12 -38 -16 -13 -35 -28
-44 -33 -31 -17 -6 -33 26 -17 15 8 54 24 86 36 118 44 314 1 376 -82 39 -52
80 -138 76 -162 -3 -22 -13 -24 -78 -17 -14 1 -47 2 -74 1 -73 -2 -46 -18 57
-36 98 -18 248 -80 290 -121 48 -49 30 -131 -35 -153 -65 -23 -198 -10 -373
35 -85 22 -115 25 -200 21 -88 -4 -120 -11 -265 -60 -267 -89 -425 -98 -636
-37 -142 42 -172 43 -295 15 -128 -30 -331 -42 -411 -26 -43 9 -72 24 -113 57
-30 25 -55 52 -55 60 0 7 -4 14 -9 14 -15 0 -59 102 -82 189 -27 106 -21 212
21 363 34 123 41 141 186 463 237 529 259 594 259 783 0 108 6 127 31 103 15
-15 157 -71 179 -71 11 1 -6 13 -40 30 -88 43 -225 146 -225 169 0 4 82 7 183
7 116 -1 189 3 201 10 14 9 -19 12 -145 17 -102 3 -187 11 -224 21 -93 25
-217 65 -250 81 -16 8 -68 30 -115 50 -230 98 -418 206 -540 310 -79 68 -79
70 -19 100 29 14 58 25 65 25 7 0 14 3 16 8 2 4 62 34 133 66 72 33 191 88
265 123 74 36 160 76 190 91 49 23 191 91 457 218 51 24 137 66 193 93 55 27
100 47 100 44 0 -3 9 2 21 13 12 10 22 17 23 15 0 -2 64 27 141 64 77 37 185
88 240 113 55 25 158 74 228 109 70 35 130 63 132 63 3 0 88 41 191 90 102 50
187 90 189 90 2 0 50 22 107 50 56 27 109 50 116 50 6 0 12 -9 12 -21z"/>
<path d="M9119 8169 c-41 -11 -72 -30 -101 -63 -14 -17 -38 -44 -52 -61 -30
-35 -30 -59 0 -63 16 -2 33 12 66 55 47 62 106 103 150 103 31 0 47 18 27 31
-15 9 -51 9 -90 -2z"/>
<path d="M9625 8114 c-22 -15 -55 -33 -73 -41 l-33 -14 21 -29 c31 -44 84 -42
151 6 50 37 51 37 85 21 39 -19 57 -56 51 -105 -7 -48 25 -39 37 11 8 31 6 44
-9 70 -34 59 -81 92 -146 102 -38 6 -50 3 -84 -21z"/>
<path d="M9040 7850 c0 -6 11 -15 25 -20 30 -11 32 -34 5 -78 -29 -48 -28
-135 2 -156 56 -40 100 -5 106 84 4 51 1 66 -23 106 -17 30 -39 51 -61 60 -40
17 -54 18 -54 4z"/>
<path d="M9611 7792 c9 -14 8 -25 -4 -49 -23 -44 -31 -106 -18 -132 16 -28 62
-28 96 2 32 27 44 92 25 137 -13 32 -55 60 -90 60 -17 0 -18 -3 -9 -18z"/>
<path d="M9290 7150 c-31 -75 -170 -82 -227 -13 -30 37 -40 22 -15 -19 31 -49
86 -76 141 -68 34 5 53 16 83 48 21 23 38 50 38 62 0 28 -5 25 -20 -10z"/>
<path d="M9840 7152 c0 -15 -19 -34 -61 -62 -33 -22 -63 -40 -66 -40 -3 0 -26
-17 -51 -37 -25 -21 -60 -47 -77 -58 -17 -12 -39 -29 -50 -38 -66 -54 -190
-139 -241 -165 -78 -39 -154 -54 -284 -55 -99 -1 -110 1 -153 26 -25 15 -48
23 -51 19 -7 -11 53 -68 80 -76 33 -10 49 -35 73 -111 40 -125 100 -175 209
-175 51 0 67 5 108 33 61 40 88 92 109 207 25 132 29 141 105 205 39 33 99 85
134 115 112 98 236 181 265 178 36 -4 71 -75 71 -145 0 -83 28 -79 51 8 11 40
10 50 -7 84 -24 49 -80 94 -127 102 -33 5 -37 3 -37 -15z"/>
<path d="M9366 6300 c-60 -60 -98 -74 -187 -68 -38 3 -66 1 -63 -4 15 -23 108
-45 177 -39 37 2 137 117 137 157 0 13 -21 -2 -64 -46z"/>
<path d="M9247 863 c-11 -10 -8 -107 4 -142 20 -56 107 -79 183 -47 55 23 56
39 2 31 -28 -5 -64 -3 -91 5 -51 14 -75 52 -75 119 0 38 -8 50 -23 34z"/>
</g>
</svg>
